[2020-10-26T14:20:11.470512+00:00] FFmpeg_Streaming.INFO: ffprobe running command '/usr/bin/ffprobe' '-help' '-loglevel' 'quiet' [] []
[2020-10-26T14:20:11.545652+00:00] FFmpeg_Streaming.INFO: ffprobe executed command successfully [] []
[2020-10-26T14:20:11.545948+00:00] FFmpeg_Streaming.INFO: ffprobe running command '/usr/bin/ffprobe' 'vid/Jasiri Test_Trim.mp4' '-show_streams' '-print_format' 'json' [] []
[2020-10-26T14:20:11.634174+00:00] FFmpeg_Streaming.INFO: ffprobe executed command successfully [] []
[2020-10-26T14:23:30.098445+00:00] FFmpeg_Streaming.INFO: ffprobe running command '/usr/bin/ffprobe' '-help' '-loglevel' 'quiet' [] []
[2020-10-26T14:23:30.173140+00:00] FFmpeg_Streaming.INFO: ffprobe executed command successfully [] []
[2020-10-26T14:23:30.173440+00:00] FFmpeg_Streaming.INFO: ffprobe running command '/usr/bin/ffprobe' 'vid/Jasiri Test_Trim.mp4' '-show_streams' '-print_format' 'json' [] []
[2020-10-26T14:23:30.260156+00:00] FFmpeg_Streaming.INFO: ffprobe executed command successfully [] []
[2020-10-26T14:23:30.263668+00:00] FFmpeg_Streaming.INFO: ffprobe running command '/usr/bin/ffprobe' 'vid/Jasiri Test_Trim.mp4' '-show_format' '-print_format' 'json' [] []
[2020-10-26T14:23:30.349488+00:00] FFmpeg_Streaming.INFO: ffprobe executed command successfully [] []
[2020-10-26T14:23:30.352188+00:00] FFmpeg_Streaming.INFO: ffmpeg running command '/usr/bin/ffmpeg' '-y' '-i' 'vid/Jasiri Test_Trim.mp4' '-c:v' 'libx264' '-c:a' 'aac' '-bf' '1' '-keyint_min' '25' '-g' '250' '-sc_threshold' '40' '-use_timeline' '1' '-use_template' '1' '-init_seg_name' 'Jasiri Test_Trim_init_$RepresentationID$.$ext$' '-media_seg_name' 'Jasiri Test_Trim_chunk_$RepresentationID$_$Number%05d$.$ext$' '-seg_duration' '10' '-hls_playlist' '0' '-f' 'dash' '-adaptation_sets' 'id=0,streams=v id=1,streams=a' '-map' '0' '-s:v:0' '266x144' '-b:v:0' '1217k' '-map' '0' '-s:v:1' '444x240' '-b:v:1' '1420k' '-map' '0' '-s:v:2' '666x360' '-b:v:2' '1704k' '-map' '0' '-s:v:3' '888x480' '-b:v:3' '2130k' '-map' '0' '-s:v:4' '1332x720' '-b:v:4' '2840k' '-map' '0' '-s:v:5' '1776x1038' '-b:v:5' '4260k' '-strict' '-2' '-threads' '12' 'vid/Jasiri Test_Trim.mpd' [] []
[2020-10-26T14:23:30.954209+00:00] FFmpeg_Streaming.ERROR: ffmpeg failed to execute command '/usr/bin/ffmpeg' '-y' '-i' 'vid/Jasiri Test_Trim.mp4' '-c:v' 'libx264' '-c:a' 'aac' '-bf' '1' '-keyint_min' '25' '-g' '250' '-sc_threshold' '40' '-use_timeline' '1' '-use_template' '1' '-init_seg_name' 'Jasiri Test_Trim_init_$RepresentationID$.$ext$' '-media_seg_name' 'Jasiri Test_Trim_chunk_$RepresentationID$_$Number%05d$.$ext$' '-seg_duration' '10' '-hls_playlist' '0' '-f' 'dash' '-adaptation_sets' 'id=0,streams=v id=1,streams=a' '-map' '0' '-s:v:0' '266x144' '-b:v:0' '1217k' '-map' '0' '-s:v:1' '444x240' '-b:v:1' '1420k' '-map' '0' '-s:v:2' '666x360' '-b:v:2' '1704k' '-map' '0' '-s:v:3' '888x480' '-b:v:3' '2130k' '-map' '0' '-s:v:4' '1332x720' '-b:v:4' '2840k' '-map' '0' '-s:v:5' '1776x1038' '-b:v:5' '4260k' '-strict' '-2' '-threads' '12' 'vid/Jasiri Test_Trim.mpd': ffmpeg version 4.2.4-1ubuntu0.1 Copyright (c) 2000-2020 the FFmpeg developers   built with gcc 9 (Ubuntu 9.3.0-10ubuntu2)   configuration: --prefix=/usr --extra-version=1ubuntu0.1 --toolchain=hardened --libdir=/usr/lib/x86_64-linux-gnu --incdir=/usr/include/x86_64-linux-gnu --arch=amd64 --enable-gpl --disable-stripping --enable-avresample --disable-filter=resample --enable-avisynth --enable-gnutls --enable-ladspa --enable-libaom --enable-libass --enable-libbluray --enable-libbs2b --enable-libcaca --enable-libcdio --enable-libcodec2 --enable-libflite --enable-libfontconfig --enable-libfreetype --enable-libfribidi --enable-libgme --enable-libgsm --enable-libjack --enable-libmp3lame --enable-libmysofa --enable-libopenjpeg --enable-libopenmpt --enable-libopus --enable-libpulse --enable-librsvg --enable-librubberband --enable-libshine --enable-libsnappy --enable-libsoxr --enable-libspeex --enable-libssh --enable-libtheora --enable-libtwolame --enable-libvidstab --enable-libvorbis --enable-libvpx --enable-libwavpack --enable-libwebp --enable-libx265 --enable-libxml2 --enable-libxvid --enable-libzmq --enable-libzvbi --enable-lv2 --enable-omx --enable-openal --enable-opencl --enable-opengl --enable-sdl2 --enable-libdc1394 --enable-libdrm --enable-libiec61883 --enable-nvenc --enable-chromaprint --enable-frei0r --enable-libx264 --enable-shared   libavutil      56. 31.100 / 56. 31.100   libavcodec     58. 54.100 / 58. 54.100   libavformat    58. 29.100 / 58. 29.100   libavdevice    58.  8.100 / 58.  8.100   libavfilter     7. 57.100 /  7. 57.100   libavresample   4.  0.  0 /  4.  0.  0   libswscale      5.  5.100 /  5.  5.100   libswresample   3.  5.100 /  3.  5.100   libpostproc    55.  5.100 / 55.  5.100 Input #0, mov,mp4,m4a,3gp,3g2,mj2, from 'vid/Jasiri Test_Trim.mp4':   Metadata:     major_brand     : mp42     minor_version   : 0     compatible_brands: mp41isom     creation_time   : 2020-10-26T10:19:22.000000Z   Duration: 00:00:10.84, start: 0.000000, bitrate: 4522 kb/s     Stream #0:0(und): Video: h264 (Main) (avc1 / 0x31637661), yuv420p, 1920x960 [SAR 1:1 DAR 2:1], 4362 kb/s, 30 fps, 30 tbr, 30k tbn, 60 tbc (default)     Metadata:       creation_time   : 2020-10-26T12:08:24.000000Z       handler_name    : VideoHandler       encoder         : AVC Coding     Stream #0:1(und): Audio: aac (LC) (mp4a / 0x6134706D), 48000 Hz, stereo, fltp, 196 kb/s (default)     Metadata:       creation_time   : 2020-10-26T12:08:24.000000Z       handler_name    : SoundHandler Stream mapping:   Stream #0:0 -> #0:0 (h264 (native) -> h264 (libx264))   Stream #0:1 -> #0:1 (aac (native) -> aac (native))   Stream #0:0 -> #0:2 (h264 (native) -> h264 (libx264))   Stream #0:1 -> #0:3 (aac (native) -> aac (native))   Stream #0:0 -> #0:4 (h264 (native) -> h264 (libx264))   Stream #0:1 -> #0:5 (aac (native) -> aac (native))   Stream #0:0 -> #0:6 (h264 (native) -> h264 (libx264))   Stream #0:1 -> #0:7 (aac (native) -> aac (native))   Stream #0:0 -> #0:8 (h264 (native) -> h264 (libx264))   Stream #0:1 -> #0:9 (aac (native) -> aac (native))   Stream #0:0 -> #0:10 (h264 (native) -> h264 (libx264))   Stream #0:1 -> #0:11 (aac (native) -> aac (native)) Press [q] to stop, [?] for help [libx264 @ 0x55cb4408f7c0] using SAR=144/133 [libx264 @ 0x55cb4408f7c0] using cpu capabilities: MMX2 SSE2Fast SSSE3 SSE4.2 AVX FMA3 BMI2 AVX2 [libx264 @ 0x55cb4408f7c0] profile High, level 2.0 [libx264 @ 0x55cb4408f7c0] 264 - core 155 r2917 0a84d98 - H.264/MPEG-4 AVC codec - Copyleft 2003-2018 - http://www.videolan.org/x264.html - options: cabac=1 ref=3 deblock=1:0:0 analyse=0x3:0x113 me=hex subme=7 psy=1 psy_rd=1.00:0.00 mixed_ref=1 me_range=16 chroma_me=1 trellis=1 8x8dct=1 cqm=0 deadzone=21,11 fast_pskip=1 chroma_qp_offset=-2 threads=12 lookahead_threads=1 sliced_threads=0 nr=0 decimate=1 interlaced=0 bluray_compat=0 constrained_intra=0 bframes=1 b_pyramid=0 b_adapt=1 b_bias=0 direct=1 weightb=1 open_gop=0 weightp=2 keyint=250 keyint_min=25 scenecut=40 intra_refresh=0 rc_lookahead=40 rc=abr mbtree=1 bitrate=1217 ratetol=1.0 qcomp=0.60 qpmin=0 qpmax=69 qpstep=4 ip_ratio=1.40 aq=1:1.00 [libx264 @ 0x55cb440be980] using SAR=40/37 [libx264 @ 0x55cb440be980] using cpu capabilities: MMX2 SSE2Fast SSSE3 SSE4.2 AVX FMA3 BMI2 AVX2 [libx264 @ 0x55cb440be980] profile High, level 2.1 [libx264 @ 0x55cb440be980] 264 - core 155 r2917 0a84d98 - H.264/MPEG-4 AVC codec - Copyleft 2003-2018 - http://www.videolan.org/x264.html - options: cabac=1 ref=3 deblock=1:0:0 analyse=0x3:0x113 me=hex subme=7 psy=1 psy_rd=1.00:0.00 mixed_ref=1 me_range=16 chroma_me=1 trellis=1 8x8dct=1 cqm=0 deadzone=21,11 fast_pskip=1 chroma_qp_offset=-2 threads=12 lookahead_threads=1 sliced_threads=0 nr=0 decimate=1 interlaced=0 bluray_compat=0 constrained_intra=0 bframes=1 b_pyramid=0 b_adapt=1 b_bias=0 direct=1 weightb=1 open_gop=0 weightp=2 keyint=250 keyint_min=25 scenecut=40 intra_refresh=0 rc_lookahead=40 rc=abr mbtree=1 bitrate=1420 ratetol=1.0 qcomp=0.60 qpmin=0 qpmax=69 qpstep=4 ip_ratio=1.40 aq=1:1.00 [libx264 @ 0x55cb44092d00] using SAR=40/37 [libx264 @ 0x55cb44092d00] using cpu capabilities: MMX2 SSE2Fast SSSE3 SSE4.2 AVX FMA3 BMI2 AVX2 [libx264 @ 0x55cb44092d00] profile High, level 3.0 [libx264 @ 0x55cb44092d00] 264 - core 155 r2917 0a84d98 - H.264/MPEG-4 AVC codec - Copyleft 2003-2018 - http://www.videolan.org/x264.html - options: cabac=1 ref=3 deblock=1:0:0 analyse=0x3:0x113 me=hex subme=7 psy=1 psy_rd=1.00:0.00 mixed_ref=1 me_range=16 chroma_me=1 trellis=1 8x8dct=1 cqm=0 deadzone=21,11 fast_pskip=1 chroma_qp_offset=-2 threads=12 lookahead_threads=2 sliced_threads=0 nr=0 decimate=1 interlaced=0 bluray_compat=0 constrained_intra=0 bframes=1 b_pyramid=0 b_adapt=1 b_bias=0 direct=1 weightb=1 open_gop=0 weightp=2 keyint=250 keyint_min=25 scenecut=40 intra_refresh=0 rc_lookahead=40 rc=abr mbtree=1 bitrate=1704 ratetol=1.0 qcomp=0.60 qpmin=0 qpmax=69 qpstep=4 ip_ratio=1.40 aq=1:1.00 [libx264 @ 0x55cb44095080] using SAR=40/37 [libx264 @ 0x55cb44095080] using cpu capabilities: MMX2 SSE2Fast SSSE3 SSE4.2 AVX FMA3 BMI2 AVX2 [libx264 @ 0x55cb44095080] profile High, level 3.1 [libx264 @ 0x55cb44095080] 264 - core 155 r2917 0a84d98 - H.264/MPEG-4 AVC codec - Copyleft 2003-2018 - http://www.videolan.org/x264.html - options: cabac=1 ref=3 deblock=1:0:0 analyse=0x3:0x113 me=hex subme=7 psy=1 psy_rd=1.00:0.00 mixed_ref=1 me_range=16 chroma_me=1 trellis=1 8x8dct=1 cqm=0 deadzone=21,11 fast_pskip=1 chroma_qp_offset=-2 threads=12 lookahead_threads=2 sliced_threads=0 nr=0 decimate=1 interlaced=0 bluray_compat=0 constrained_intra=0 bframes=1 b_pyramid=0 b_adapt=1 b_bias=0 direct=1 weightb=1 open_gop=0 weightp=2 keyint=250 keyint_min=25 scenecut=40 intra_refresh=0 rc_lookahead=40 rc=abr mbtree=1 bitrate=2130 ratetol=1.0 qcomp=0.60 qpmin=0 qpmax=69 qpstep=4 ip_ratio=1.40 aq=1:1.00 [libx264 @ 0x55cb4409f640] using SAR=40/37 [libx264 @ 0x55cb4409f640] using cpu capabilities: MMX2 SSE2Fast SSSE3 SSE4.2 AVX FMA3 BMI2 AVX2 [libx264 @ 0x55cb4409f640] profile High, level 3.2 [libx264 @ 0x55cb4409f640] 264 - core 155 r2917 0a84d98 - H.264/MPEG-4 AVC codec - Copyleft 2003-2018 - http://www.videolan.org/x264.html - options: cabac=1 ref=3 deblock=1:0:0 analyse=0x3:0x113 me=hex subme=7 psy=1 psy_rd=1.00:0.00 mixed_ref=1 me_range=16 chroma_me=1 trellis=1 8x8dct=1 cqm=0 deadzone=21,11 fast_pskip=1 chroma_qp_offset=-2 threads=12 lookahead_threads=2 sliced_threads=0 nr=0 decimate=1 interlaced=0 bluray_compat=0 constrained_intra=0 bframes=1 b_pyramid=0 b_adapt=1 b_bias=0 direct=1 weightb=1 open_gop=0 weightp=2 keyint=250 keyint_min=25 scenecut=40 intra_refresh=0 rc_lookahead=40 rc=abr mbtree=1 bitrate=2840 ratetol=1.0 qcomp=0.60 qpmin=0 qpmax=69 qpstep=4 ip_ratio=1.40 aq=1:1.00 [libx264 @ 0x55cb440a3cc0] using SAR=173/148 [libx264 @ 0x55cb440a3cc0] using cpu capabilities: MMX2 SSE2Fast SSSE3 SSE4.2 AVX FMA3 BMI2 AVX2 [libx264 @ 0x55cb440a3cc0] profile High, level 4.0 [libx264 @ 0x55cb440a3cc0] 264 - core 155 r2917 0a84d98 - H.264/MPEG-4 AVC codec - Copyleft 2003-2018 - http://www.videolan.org/x264.html - options: cabac=1 ref=3 deblock=1:0:0 analyse=0x3:0x113 me=hex subme=7 psy=1 psy_rd=1.00:0.00 mixed_ref=1 me_range=16 chroma_me=1 trellis=1 8x8dct=1 cqm=0 deadzone=21,11 fast_pskip=1 chroma_qp_offset=-2 threads=12 lookahead_threads=2 sliced_threads=0 nr=0 decimate=1 interlaced=0 bluray_compat=0 constrained_intra=0 bframes=1 b_pyramid=0 b_adapt=1 b_bias=0 direct=1 weightb=1 open_gop=0 weightp=2 keyint=250 keyint_min=25 scenecut=40 intra_refresh=0 rc_lookahead=40 rc=abr mbtree=1 bitrate=4260 ratetol=1.0 qcomp=0.60 qpmin=0 qpmax=69 qpstep=4 ip_ratio=1.40 aq=1:1.00 [dash @ 0x55cb44091680] Opening 'vid/Jasiri Test_Trim_init_0.m4s' for writing Could not write header for output file #0 (incorrect codec parameters ?): Permission denied Error initializing output stream 0:11 --  [libx264 @ 0x55cb4408f7c0] final ratefactor: 14.57 [aac @ 0x55cb4409db80] Qavg: -nan [aac @ 0x55cb4409db80] 1 frames left in the queue on closing [libx264 @ 0x55cb440be980] final ratefactor: 17.60 [aac @ 0x55cb44099740] Qavg: -nan [aac @ 0x55cb44099740] 1 frames left in the queue on closing [libx264 @ 0x55cb44092d00] final ratefactor: 19.63 [aac @ 0x55cb44159200] Qavg: -nan [aac @ 0x55cb44159200] 1 frames left in the queue on closing [libx264 @ 0x55cb44095080] final ratefactor: 20.10 [aac @ 0x55cb44097e00] Qavg: -nan [aac @ 0x55cb44097e00] 1 frames left in the queue on closing [libx264 @ 0x55cb4409f640] final ratefactor: 21.11 [aac @ 0x55cb440a1f00] Qavg: -nan [aac @ 0x55cb440a1f00] 1 frames left in the queue on closing [libx264 @ 0x55cb440a3cc0] final ratefactor: 20.40 [aac @ 0x55cb440a61c0] Qavg: -nan Conversion failed!  [] []
[2020-10-26T14:25:12.761089+00:00] FFmpeg_Streaming.INFO: ffprobe running command '/usr/bin/ffprobe' '-help' '-loglevel' 'quiet' [] []
[2020-10-26T14:25:12.886324+00:00] FFmpeg_Streaming.INFO: ffprobe executed command successfully [] []
[2020-10-26T14:25:12.886643+00:00] FFmpeg_Streaming.INFO: ffprobe running command '/usr/bin/ffprobe' 'vid/Harmonize.mp4' '-show_streams' '-print_format' 'json' [] []
[2020-10-26T14:25:12.963873+00:00] FFmpeg_Streaming.INFO: ffprobe executed command successfully [] []
[2020-10-26T14:25:12.964661+00:00] FFmpeg_Streaming.INFO: ffprobe running command '/usr/bin/ffprobe' 'vid/Harmonize.mp4' '-show_format' '-print_format' 'json' [] []
[2020-10-26T14:25:13.041189+00:00] FFmpeg_Streaming.INFO: ffprobe executed command successfully [] []
[2020-10-26T14:25:13.042061+00:00] FFmpeg_Streaming.INFO: ffmpeg running command '/usr/bin/ffmpeg' '-y' '-i' 'vid/Harmonize.mp4' '-c:v' 'libx264' '-c:a' 'aac' '-bf' '1' '-keyint_min' '25' '-g' '250' '-sc_threshold' '40' '-use_timeline' '1' '-use_template' '1' '-init_seg_name' 'Harmonize_init_$RepresentationID$.$ext$' '-media_seg_name' 'Harmonize_chunk_$RepresentationID$_$Number%05d$.$ext$' '-seg_duration' '10' '-hls_playlist' '0' '-f' 'dash' '-adaptation_sets' 'id=0,streams=v id=1,streams=a' '-map' '0' '-s:v:0' '256x144' '-b:v:0' '224k' '-map' '0' '-s:v:1' '426x240' '-b:v:1' '299k' '-map' '0' '-s:v:2' '640x360' '-b:v:2' '449k' '-strict' '-2' '-threads' '12' 'vid/Harmonize.mpd' [] []
[2020-10-26T14:25:13.205839+00:00] FFmpeg_Streaming.ERROR: ffmpeg failed to execute command '/usr/bin/ffmpeg' '-y' '-i' 'vid/Harmonize.mp4' '-c:v' 'libx264' '-c:a' 'aac' '-bf' '1' '-keyint_min' '25' '-g' '250' '-sc_threshold' '40' '-use_timeline' '1' '-use_template' '1' '-init_seg_name' 'Harmonize_init_$RepresentationID$.$ext$' '-media_seg_name' 'Harmonize_chunk_$RepresentationID$_$Number%05d$.$ext$' '-seg_duration' '10' '-hls_playlist' '0' '-f' 'dash' '-adaptation_sets' 'id=0,streams=v id=1,streams=a' '-map' '0' '-s:v:0' '256x144' '-b:v:0' '224k' '-map' '0' '-s:v:1' '426x240' '-b:v:1' '299k' '-map' '0' '-s:v:2' '640x360' '-b:v:2' '449k' '-strict' '-2' '-threads' '12' 'vid/Harmonize.mpd': ffmpeg version 4.2.4-1ubuntu0.1 Copyright (c) 2000-2020 the FFmpeg developers   built with gcc 9 (Ubuntu 9.3.0-10ubuntu2)   configuration: --prefix=/usr --extra-version=1ubuntu0.1 --toolchain=hardened --libdir=/usr/lib/x86_64-linux-gnu --incdir=/usr/include/x86_64-linux-gnu --arch=amd64 --enable-gpl --disable-stripping --enable-avresample --disable-filter=resample --enable-avisynth --enable-gnutls --enable-ladspa --enable-libaom --enable-libass --enable-libbluray --enable-libbs2b --enable-libcaca --enable-libcdio --enable-libcodec2 --enable-libflite --enable-libfontconfig --enable-libfreetype --enable-libfribidi --enable-libgme --enable-libgsm --enable-libjack --enable-libmp3lame --enable-libmysofa --enable-libopenjpeg --enable-libopenmpt --enable-libopus --enable-libpulse --enable-librsvg --enable-librubberband --enable-libshine --enable-libsnappy --enable-libsoxr --enable-libspeex --enable-libssh --enable-libtheora --enable-libtwolame --enable-libvidstab --enable-libvorbis --enable-libvpx --enable-libwavpack --enable-libwebp --enable-libx265 --enable-libxml2 --enable-libxvid --enable-libzmq --enable-libzvbi --enable-lv2 --enable-omx --enable-openal --enable-opencl --enable-opengl --enable-sdl2 --enable-libdc1394 --enable-libdrm --enable-libiec61883 --enable-nvenc --enable-chromaprint --enable-frei0r --enable-libx264 --enable-shared   libavutil      56. 31.100 / 56. 31.100   libavcodec     58. 54.100 / 58. 54.100   libavformat    58. 29.100 / 58. 29.100   libavdevice    58.  8.100 / 58.  8.100   libavfilter     7. 57.100 /  7. 57.100   libavresample   4.  0.  0 /  4.  0.  0   libswscale      5.  5.100 /  5.  5.100   libswresample   3.  5.100 /  3.  5.100   libpostproc    55.  5.100 / 55.  5.100 Input #0, mov,mp4,m4a,3gp,3g2,mj2, from 'vid/Harmonize.mp4':   Metadata:     major_brand     : mp42     minor_version   : 0     compatible_brands: isommp42     creation_time   : 2020-08-12T03:05:16.000000Z   Duration: 00:03:36.09, start: 0.000000, bitrate: 558 kb/s     Stream #0:0(und): Video: h264 (Constrained Baseline) (avc1 / 0x31637661), yuv420p(tv, bt709), 640x360 [SAR 1:1 DAR 16:9], 460 kb/s, 25 fps, 25 tbr, 12800 tbn, 50 tbc (default)     Metadata:       creation_time   : 2020-08-12T03:05:16.000000Z       handler_name    : ISO Media file produced by Google Inc. Created on: 08/11/2020.     Stream #0:1(eng): Audio: aac (LC) (mp4a / 0x6134706D), 44100 Hz, stereo, fltp, 96 kb/s (default)     Metadata:       creation_time   : 2020-08-12T03:05:16.000000Z       handler_name    : ISO Media file produced by Google Inc. Created on: 08/11/2020. Stream mapping:   Stream #0:0 -> #0:0 (h264 (native) -> h264 (libx264))   Stream #0:1 -> #0:1 (aac (native) -> aac (native))   Stream #0:0 -> #0:2 (h264 (native) -> h264 (libx264))   Stream #0:1 -> #0:3 (aac (native) -> aac (native))   Stream #0:0 -> #0:4 (h264 (native) -> h264 (libx264))   Stream #0:1 -> #0:5 (aac (native) -> aac (native)) Press [q] to stop, [?] for help [libx264 @ 0x5592c9167340] using SAR=1/1 [libx264 @ 0x5592c9167340] using cpu capabilities: MMX2 SSE2Fast SSSE3 SSE4.2 AVX FMA3 BMI2 AVX2 [libx264 @ 0x5592c9167340] profile High, level 1.2 [libx264 @ 0x5592c9167340] 264 - core 155 r2917 0a84d98 - H.264/MPEG-4 AVC codec - Copyleft 2003-2018 - http://www.videolan.org/x264.html - options: cabac=1 ref=3 deblock=1:0:0 analyse=0x3:0x113 me=hex subme=7 psy=1 psy_rd=1.00:0.00 mixed_ref=1 me_range=16 chroma_me=1 trellis=1 8x8dct=1 cqm=0 deadzone=21,11 fast_pskip=1 chroma_qp_offset=-2 threads=12 lookahead_threads=1 sliced_threads=0 nr=0 decimate=1 interlaced=0 bluray_compat=0 constrained_intra=0 bframes=1 b_pyramid=0 b_adapt=1 b_bias=0 direct=1 weightb=1 open_gop=0 weightp=2 keyint=250 keyint_min=25 scenecut=40 intra_refresh=0 rc_lookahead=40 rc=abr mbtree=1 bitrate=224 ratetol=1.0 qcomp=0.60 qpmin=0 qpmax=69 qpstep=4 ip_ratio=1.40 aq=1:1.00 [libx264 @ 0x5592c91be600] using SAR=640/639 [libx264 @ 0x5592c91be600] using cpu capabilities: MMX2 SSE2Fast SSSE3 SSE4.2 AVX FMA3 BMI2 AVX2 [libx264 @ 0x5592c91be600] profile High, level 2.1 [libx264 @ 0x5592c91be600] 264 - core 155 r2917 0a84d98 - H.264/MPEG-4 AVC codec - Copyleft 2003-2018 - http://www.videolan.org/x264.html - options: cabac=1 ref=3 deblock=1:0:0 analyse=0x3:0x113 me=hex subme=7 psy=1 psy_rd=1.00:0.00 mixed_ref=1 me_range=16 chroma_me=1 trellis=1 8x8dct=1 cqm=0 deadzone=21,11 fast_pskip=1 chroma_qp_offset=-2 threads=12 lookahead_threads=1 sliced_threads=0 nr=0 decimate=1 interlaced=0 bluray_compat=0 constrained_intra=0 bframes=1 b_pyramid=0 b_adapt=1 b_bias=0 direct=1 weightb=1 open_gop=0 weightp=2 keyint=250 keyint_min=25 scenecut=40 intra_refresh=0 rc_lookahead=40 rc=abr mbtree=1 bitrate=299 ratetol=1.0 qcomp=0.60 qpmin=0 qpmax=69 qpstep=4 ip_ratio=1.40 aq=1:1.00 [libx264 @ 0x5592c9168880] using SAR=1/1 [libx264 @ 0x5592c9168880] using cpu capabilities: MMX2 SSE2Fast SSSE3 SSE4.2 AVX FMA3 BMI2 AVX2 [libx264 @ 0x5592c9168880] profile High, level 3.0 [libx264 @ 0x5592c9168880] 264 - core 155 r2917 0a84d98 - H.264/MPEG-4 AVC codec - Copyleft 2003-2018 - http://www.videolan.org/x264.html - options: cabac=1 ref=3 deblock=1:0:0 analyse=0x3:0x113 me=hex subme=7 psy=1 psy_rd=1.00:0.00 mixed_ref=1 me_range=16 chroma_me=1 trellis=1 8x8dct=1 cqm=0 deadzone=21,11 fast_pskip=1 chroma_qp_offset=-2 threads=12 lookahead_threads=2 sliced_threads=0 nr=0 decimate=1 interlaced=0 bluray_compat=0 constrained_intra=0 bframes=1 b_pyramid=0 b_adapt=1 b_bias=0 direct=1 weightb=1 open_gop=0 weightp=2 keyint=250 keyint_min=25 scenecut=40 intra_refresh=0 rc_lookahead=40 rc=abr mbtree=1 bitrate=449 ratetol=1.0 qcomp=0.60 qpmin=0 qpmax=69 qpstep=4 ip_ratio=1.40 aq=1:1.00 [dash @ 0x5592c91a4180] Opening 'vid/Harmonize_init_0.m4s' for writing Could not write header for output file #0 (incorrect codec parameters ?): Permission denied Error initializing output stream 0:5 --  [libx264 @ 0x5592c9167340] final ratefactor: 27.38 [aac @ 0x5592c916b040] Qavg: -nan [aac @ 0x5592c916b040] 1 frames left in the queue on closing [libx264 @ 0x5592c91be600] final ratefactor: 29.36 [aac @ 0x5592c91cc240] Qavg: -nan [aac @ 0x5592c91cc240] 1 frames left in the queue on closing [libx264 @ 0x5592c9168880] final ratefactor: 29.39 [aac @ 0x5592c91cec40] Qavg: -nan Conversion failed!  [] []
[2020-10-26T14:26:10.164871+00:00] FFmpeg_Streaming.INFO: ffprobe running command '/usr/bin/ffprobe' '-help' '-loglevel' 'quiet' [] []
[2020-10-26T14:26:10.240529+00:00] FFmpeg_Streaming.INFO: ffprobe executed command successfully [] []
[2020-10-26T14:26:10.240842+00:00] FFmpeg_Streaming.INFO: ffprobe running command '/usr/bin/ffprobe' 'vid/Harmonize.mp4' '-show_streams' '-print_format' 'json' [] []
[2020-10-26T14:26:10.330823+00:00] FFmpeg_Streaming.INFO: ffprobe executed command successfully [] []
[2020-10-26T14:26:10.331696+00:00] FFmpeg_Streaming.INFO: ffprobe running command '/usr/bin/ffprobe' 'vid/Harmonize.mp4' '-show_format' '-print_format' 'json' [] []
[2020-10-26T14:26:10.412602+00:00] FFmpeg_Streaming.INFO: ffprobe executed command successfully [] []
[2020-10-26T14:26:10.413596+00:00] FFmpeg_Streaming.INFO: ffmpeg running command '/usr/bin/ffmpeg' '-y' '-i' 'vid/Harmonize.mp4' '-c:v' 'libx264' '-c:a' 'aac' '-bf' '1' '-keyint_min' '25' '-g' '250' '-sc_threshold' '40' '-use_timeline' '1' '-use_template' '1' '-init_seg_name' 'Harmonize_init_$RepresentationID$.$ext$' '-media_seg_name' 'Harmonize_chunk_$RepresentationID$_$Number%05d$.$ext$' '-seg_duration' '10' '-hls_playlist' '0' '-f' 'dash' '-adaptation_sets' 'id=0,streams=v id=1,streams=a' '-map' '0' '-s:v:0' '256x144' '-b:v:0' '224k' '-map' '0' '-s:v:1' '426x240' '-b:v:1' '299k' '-map' '0' '-s:v:2' '640x360' '-b:v:2' '449k' '-strict' '-2' '-threads' '12' 'vid/Harmonize.mpd' [] []
[2020-10-26T14:26:10.572984+00:00] FFmpeg_Streaming.ERROR: ffmpeg failed to execute command '/usr/bin/ffmpeg' '-y' '-i' 'vid/Harmonize.mp4' '-c:v' 'libx264' '-c:a' 'aac' '-bf' '1' '-keyint_min' '25' '-g' '250' '-sc_threshold' '40' '-use_timeline' '1' '-use_template' '1' '-init_seg_name' 'Harmonize_init_$RepresentationID$.$ext$' '-media_seg_name' 'Harmonize_chunk_$RepresentationID$_$Number%05d$.$ext$' '-seg_duration' '10' '-hls_playlist' '0' '-f' 'dash' '-adaptation_sets' 'id=0,streams=v id=1,streams=a' '-map' '0' '-s:v:0' '256x144' '-b:v:0' '224k' '-map' '0' '-s:v:1' '426x240' '-b:v:1' '299k' '-map' '0' '-s:v:2' '640x360' '-b:v:2' '449k' '-strict' '-2' '-threads' '12' 'vid/Harmonize.mpd': ffmpeg version 4.2.4-1ubuntu0.1 Copyright (c) 2000-2020 the FFmpeg developers   built with gcc 9 (Ubuntu 9.3.0-10ubuntu2)   configuration: --prefix=/usr --extra-version=1ubuntu0.1 --toolchain=hardened --libdir=/usr/lib/x86_64-linux-gnu --incdir=/usr/include/x86_64-linux-gnu --arch=amd64 --enable-gpl --disable-stripping --enable-avresample --disable-filter=resample --enable-avisynth --enable-gnutls --enable-ladspa --enable-libaom --enable-libass --enable-libbluray --enable-libbs2b --enable-libcaca --enable-libcdio --enable-libcodec2 --enable-libflite --enable-libfontconfig --enable-libfreetype --enable-libfribidi --enable-libgme --enable-libgsm --enable-libjack --enable-libmp3lame --enable-libmysofa --enable-libopenjpeg --enable-libopenmpt --enable-libopus --enable-libpulse --enable-librsvg --enable-librubberband --enable-libshine --enable-libsnappy --enable-libsoxr --enable-libspeex --enable-libssh --enable-libtheora --enable-libtwolame --enable-libvidstab --enable-libvorbis --enable-libvpx --enable-libwavpack --enable-libwebp --enable-libx265 --enable-libxml2 --enable-libxvid --enable-libzmq --enable-libzvbi --enable-lv2 --enable-omx --enable-openal --enable-opencl --enable-opengl --enable-sdl2 --enable-libdc1394 --enable-libdrm --enable-libiec61883 --enable-nvenc --enable-chromaprint --enable-frei0r --enable-libx264 --enable-shared   libavutil      56. 31.100 / 56. 31.100   libavcodec     58. 54.100 / 58. 54.100   libavformat    58. 29.100 / 58. 29.100   libavdevice    58.  8.100 / 58.  8.100   libavfilter     7. 57.100 /  7. 57.100   libavresample   4.  0.  0 /  4.  0.  0   libswscale      5.  5.100 /  5.  5.100   libswresample   3.  5.100 /  3.  5.100   libpostproc    55.  5.100 / 55.  5.100 Input #0, mov,mp4,m4a,3gp,3g2,mj2, from 'vid/Harmonize.mp4':   Metadata:     major_brand     : mp42     minor_version   : 0     compatible_brands: isommp42     creation_time   : 2020-08-12T03:05:16.000000Z   Duration: 00:03:36.09, start: 0.000000, bitrate: 558 kb/s     Stream #0:0(und): Video: h264 (Constrained Baseline) (avc1 / 0x31637661), yuv420p(tv, bt709), 640x360 [SAR 1:1 DAR 16:9], 460 kb/s, 25 fps, 25 tbr, 12800 tbn, 50 tbc (default)     Metadata:       creation_time   : 2020-08-12T03:05:16.000000Z       handler_name    : ISO Media file produced by Google Inc. Created on: 08/11/2020.     Stream #0:1(eng): Audio: aac (LC) (mp4a / 0x6134706D), 44100 Hz, stereo, fltp, 96 kb/s (default)     Metadata:       creation_time   : 2020-08-12T03:05:16.000000Z       handler_name    : ISO Media file produced by Google Inc. Created on: 08/11/2020. Stream mapping:   Stream #0:0 -> #0:0 (h264 (native) -> h264 (libx264))   Stream #0:1 -> #0:1 (aac (native) -> aac (native))   Stream #0:0 -> #0:2 (h264 (native) -> h264 (libx264))   Stream #0:1 -> #0:3 (aac (native) -> aac (native))   Stream #0:0 -> #0:4 (h264 (native) -> h264 (libx264))   Stream #0:1 -> #0:5 (aac (native) -> aac (native)) Press [q] to stop, [?] for help [libx264 @ 0x56092aec7340] using SAR=1/1 [libx264 @ 0x56092aec7340] using cpu capabilities: MMX2 SSE2Fast SSSE3 SSE4.2 AVX FMA3 BMI2 AVX2 [libx264 @ 0x56092aec7340] profile High, level 1.2 [libx264 @ 0x56092aec7340] 264 - core 155 r2917 0a84d98 - H.264/MPEG-4 AVC codec - Copyleft 2003-2018 - http://www.videolan.org/x264.html - options: cabac=1 ref=3 deblock=1:0:0 analyse=0x3:0x113 me=hex subme=7 psy=1 psy_rd=1.00:0.00 mixed_ref=1 me_range=16 chroma_me=1 trellis=1 8x8dct=1 cqm=0 deadzone=21,11 fast_pskip=1 chroma_qp_offset=-2 threads=12 lookahead_threads=1 sliced_threads=0 nr=0 decimate=1 interlaced=0 bluray_compat=0 constrained_intra=0 bframes=1 b_pyramid=0 b_adapt=1 b_bias=0 direct=1 weightb=1 open_gop=0 weightp=2 keyint=250 keyint_min=25 scenecut=40 intra_refresh=0 rc_lookahead=40 rc=abr mbtree=1 bitrate=224 ratetol=1.0 qcomp=0.60 qpmin=0 qpmax=69 qpstep=4 ip_ratio=1.40 aq=1:1.00 [libx264 @ 0x56092af1e600] using SAR=640/639 [libx264 @ 0x56092af1e600] using cpu capabilities: MMX2 SSE2Fast SSSE3 SSE4.2 AVX FMA3 BMI2 AVX2 [libx264 @ 0x56092af1e600] profile High, level 2.1 [libx264 @ 0x56092af1e600] 264 - core 155 r2917 0a84d98 - H.264/MPEG-4 AVC codec - Copyleft 2003-2018 - http://www.videolan.org/x264.html - options: cabac=1 ref=3 deblock=1:0:0 analyse=0x3:0x113 me=hex subme=7 psy=1 psy_rd=1.00:0.00 mixed_ref=1 me_range=16 chroma_me=1 trellis=1 8x8dct=1 cqm=0 deadzone=21,11 fast_pskip=1 chroma_qp_offset=-2 threads=12 lookahead_threads=1 sliced_threads=0 nr=0 decimate=1 interlaced=0 bluray_compat=0 constrained_intra=0 bframes=1 b_pyramid=0 b_adapt=1 b_bias=0 direct=1 weightb=1 open_gop=0 weightp=2 keyint=250 keyint_min=25 scenecut=40 intra_refresh=0 rc_lookahead=40 rc=abr mbtree=1 bitrate=299 ratetol=1.0 qcomp=0.60 qpmin=0 qpmax=69 qpstep=4 ip_ratio=1.40 aq=1:1.00 [libx264 @ 0x56092aec8880] using SAR=1/1 [libx264 @ 0x56092aec8880] using cpu capabilities: MMX2 SSE2Fast SSSE3 SSE4.2 AVX FMA3 BMI2 AVX2 [libx264 @ 0x56092aec8880] profile High, level 3.0 [libx264 @ 0x56092aec8880] 264 - core 155 r2917 0a84d98 - H.264/MPEG-4 AVC codec - Copyleft 2003-2018 - http://www.videolan.org/x264.html - options: cabac=1 ref=3 deblock=1:0:0 analyse=0x3:0x113 me=hex subme=7 psy=1 psy_rd=1.00:0.00 mixed_ref=1 me_range=16 chroma_me=1 trellis=1 8x8dct=1 cqm=0 deadzone=21,11 fast_pskip=1 chroma_qp_offset=-2 threads=12 lookahead_threads=2 sliced_threads=0 nr=0 decimate=1 interlaced=0 bluray_compat=0 constrained_intra=0 bframes=1 b_pyramid=0 b_adapt=1 b_bias=0 direct=1 weightb=1 open_gop=0 weightp=2 keyint=250 keyint_min=25 scenecut=40 intra_refresh=0 rc_lookahead=40 rc=abr mbtree=1 bitrate=449 ratetol=1.0 qcomp=0.60 qpmin=0 qpmax=69 qpstep=4 ip_ratio=1.40 aq=1:1.00 [dash @ 0x56092af04180] Opening 'vid/Harmonize_init_0.m4s' for writing Could not write header for output file #0 (incorrect codec parameters ?): Permission denied Error initializing output stream 0:5 --  [libx264 @ 0x56092aec7340] final ratefactor: 27.38 [aac @ 0x56092aecb040] Qavg: -nan [aac @ 0x56092aecb040] 1 frames left in the queue on closing [libx264 @ 0x56092af1e600] final ratefactor: 29.36 [aac @ 0x56092af2c240] Qavg: -nan [aac @ 0x56092af2c240] 1 frames left in the queue on closing [libx264 @ 0x56092aec8880] final ratefactor: 29.39 [aac @ 0x56092af2ec40] Qavg: -nan Conversion failed!  [] []
[2020-10-26T14:26:18.937246+00:00] FFmpeg_Streaming.INFO: ffprobe running command '/usr/bin/ffprobe' '-help' '-loglevel' 'quiet' [] []
[2020-10-26T14:26:19.011770+00:00] FFmpeg_Streaming.INFO: ffprobe executed command successfully [] []
[2020-10-26T14:26:19.012092+00:00] FFmpeg_Streaming.INFO: ffprobe running command '/usr/bin/ffprobe' 'vid/Harmonize.mp4' '-show_streams' '-print_format' 'json' [] []
[2020-10-26T14:26:19.095676+00:00] FFmpeg_Streaming.INFO: ffprobe executed command successfully [] []
[2020-10-26T14:27:22.550942+00:00] FFmpeg_Streaming.INFO: ffprobe running command '/usr/bin/ffprobe' '-help' '-loglevel' 'quiet' [] []
[2020-10-26T14:27:22.635008+00:00] FFmpeg_Streaming.INFO: ffprobe executed command successfully [] []
[2020-10-26T14:27:22.635296+00:00] FFmpeg_Streaming.INFO: ffprobe running command '/usr/bin/ffprobe' 'vid/Harmonize.mp4' '-show_streams' '-print_format' 'json' [] []
[2020-10-26T14:27:22.711569+00:00] FFmpeg_Streaming.INFO: ffprobe executed command successfully [] []
[2020-10-26T14:27:54.952126+00:00] FFmpeg_Streaming.INFO: ffprobe running command '/usr/bin/ffprobe' '-help' '-loglevel' 'quiet' [] []
[2020-10-26T14:27:55.026365+00:00] FFmpeg_Streaming.INFO: ffprobe executed command successfully [] []
[2020-10-26T14:27:55.026841+00:00] FFmpeg_Streaming.INFO: ffprobe running command '/usr/bin/ffprobe' 'vid/Harmonize.mp4' '-show_streams' '-print_format' 'json' [] []
[2020-10-26T14:27:55.105940+00:00] FFmpeg_Streaming.INFO: ffprobe executed command successfully [] []
[2020-10-26T14:27:55.107217+00:00] FFmpeg_Streaming.INFO: ffmpeg running command '/usr/bin/ffmpeg' '-y' '-i' 'vid/Harmonize.mp4' '-c:v' 'libx264' '-c:a' 'aac' '-bf' '1' '-keyint_min' '25' '-g' '250' '-sc_threshold' '40' '-use_timeline' '1' '-use_template' '1' '-init_seg_name' 'dash-stream_init_$RepresentationID$.$ext$' '-media_seg_name' 'dash-stream_chunk_$RepresentationID$_$Number%05d$.$ext$' '-seg_duration' '30' '-hls_playlist' '0' '-f' 'dash' '-adaptation_sets' 'id=0,streams=v id=1,streams=a' '-map' '0' '-s:v:0' '256x144' '-b:v:0' '95k' '-map' '0' '-s:v:1' '426x240' '-b:v:1' '150k' '-map' '0' '-s:v:2' '640x360' '-b:v:2' '276k' '-map' '0' '-s:v:3' '854x480' '-b:v:3' '750k' '-map' '0' '-s:v:4' '1280x720' '-b:v:4' '2048k' '-map' '0' '-s:v:5' '1920x1080' '-b:v:5' '4096k' '-map' '0' '-s:v:6' '2560x1440' '-b:v:6' '6144k' '-map' '0' '-s:v:7' '3840x2160' '-b:v:7' '17408k' '-strict' '-2' '-threads' '12' 'var/media/dash-stream.mpd' [] []
[2020-10-26T14:27:55.169780+00:00] FFmpeg_Streaming.INFO: ffprobe running command '/usr/bin/ffprobe' 'vid/Harmonize.mp4' '-show_format' '-print_format' 'json' [] []
[2020-10-26T14:27:55.288552+00:00] FFmpeg_Streaming.INFO: ffprobe executed command successfully [] []
[2020-10-26T14:27:56.384484+00:00] FFmpeg_Streaming.ERROR: ffmpeg failed to execute command '/usr/bin/ffmpeg' '-y' '-i' 'vid/Harmonize.mp4' '-c:v' 'libx264' '-c:a' 'aac' '-bf' '1' '-keyint_min' '25' '-g' '250' '-sc_threshold' '40' '-use_timeline' '1' '-use_template' '1' '-init_seg_name' 'dash-stream_init_$RepresentationID$.$ext$' '-media_seg_name' 'dash-stream_chunk_$RepresentationID$_$Number%05d$.$ext$' '-seg_duration' '30' '-hls_playlist' '0' '-f' 'dash' '-adaptation_sets' 'id=0,streams=v id=1,streams=a' '-map' '0' '-s:v:0' '256x144' '-b:v:0' '95k' '-map' '0' '-s:v:1' '426x240' '-b:v:1' '150k' '-map' '0' '-s:v:2' '640x360' '-b:v:2' '276k' '-map' '0' '-s:v:3' '854x480' '-b:v:3' '750k' '-map' '0' '-s:v:4' '1280x720' '-b:v:4' '2048k' '-map' '0' '-s:v:5' '1920x1080' '-b:v:5' '4096k' '-map' '0' '-s:v:6' '2560x1440' '-b:v:6' '6144k' '-map' '0' '-s:v:7' '3840x2160' '-b:v:7' '17408k' '-strict' '-2' '-threads' '12' 'var/media/dash-stream.mpd': ffmpeg version 4.2.4-1ubuntu0.1 Copyright (c) 2000-2020 the FFmpeg developers   built with gcc 9 (Ubuntu 9.3.0-10ubuntu2)   configuration: --prefix=/usr --extra-version=1ubuntu0.1 --toolchain=hardened --libdir=/usr/lib/x86_64-linux-gnu --incdir=/usr/include/x86_64-linux-gnu --arch=amd64 --enable-gpl --disable-stripping --enable-avresample --disable-filter=resample --enable-avisynth --enable-gnutls --enable-ladspa --enable-libaom --enable-libass --enable-libbluray --enable-libbs2b --enable-libcaca --enable-libcdio --enable-libcodec2 --enable-libflite --enable-libfontconfig --enable-libfreetype --enable-libfribidi --enable-libgme --enable-libgsm --enable-libjack --enable-libmp3lame --enable-libmysofa --enable-libopenjpeg --enable-libopenmpt --enable-libopus --enable-libpulse --enable-librsvg --enable-librubberband --enable-libshine --enable-libsnappy --enable-libsoxr --enable-libspeex --enable-libssh --enable-libtheora --enable-libtwolame --enable-libvidstab --enable-libvorbis --enable-libvpx --enable-libwavpack --enable-libwebp --enable-libx265 --enable-libxml2 --enable-libxvid --enable-libzmq --enable-libzvbi --enable-lv2 --enable-omx --enable-openal --enable-opencl --enable-opengl --enable-sdl2 --enable-libdc1394 --enable-libdrm --enable-libiec61883 --enable-nvenc --enable-chromaprint --enable-frei0r --enable-libx264 --enable-shared   libavutil      56. 31.100 / 56. 31.100   libavcodec     58. 54.100 / 58. 54.100   libavformat    58. 29.100 / 58. 29.100   libavdevice    58.  8.100 / 58.  8.100   libavfilter     7. 57.100 /  7. 57.100   libavresample   4.  0.  0 /  4.  0.  0   libswscale      5.  5.100 /  5.  5.100   libswresample   3.  5.100 /  3.  5.100   libpostproc    55.  5.100 / 55.  5.100 Input #0, mov,mp4,m4a,3gp,3g2,mj2, from 'vid/Harmonize.mp4':   Metadata:     major_brand     : mp42     minor_version   : 0     compatible_brands: isommp42     creation_time   : 2020-08-12T03:05:16.000000Z   Duration: 00:03:36.09, start: 0.000000, bitrate: 558 kb/s     Stream #0:0(und): Video: h264 (Constrained Baseline) (avc1 / 0x31637661), yuv420p(tv, bt709), 640x360 [SAR 1:1 DAR 16:9], 460 kb/s, 25 fps, 25 tbr, 12800 tbn, 50 tbc (default)     Metadata:       creation_time   : 2020-08-12T03:05:16.000000Z       handler_name    : ISO Media file produced by Google Inc. Created on: 08/11/2020.     Stream #0:1(eng): Audio: aac (LC) (mp4a / 0x6134706D), 44100 Hz, stereo, fltp, 96 kb/s (default)     Metadata:       creation_time   : 2020-08-12T03:05:16.000000Z       handler_name    : ISO Media file produced by Google Inc. Created on: 08/11/2020. Stream mapping:   Stream #0:0 -> #0:0 (h264 (native) -> h264 (libx264))   Stream #0:1 -> #0:1 (aac (native) -> aac (native))   Stream #0:0 -> #0:2 (h264 (native) -> h264 (libx264))   Stream #0:1 -> #0:3 (aac (native) -> aac (native))   Stream #0:0 -> #0:4 (h264 (native) -> h264 (libx264))   Stream #0:1 -> #0:5 (aac (native) -> aac (native))   Stream #0:0 -> #0:6 (h264 (native) -> h264 (libx264))   Stream #0:1 -> #0:7 (aac (native) -> aac (native))   Stream #0:0 -> #0:8 (h264 (native) -> h264 (libx264))   Stream #0:1 -> #0:9 (aac (native) -> aac (native))   Stream #0:0 -> #0:10 (h264 (native) -> h264 (libx264))   Stream #0:1 -> #0:11 (aac (native) -> aac (native))   Stream #0:0 -> #0:12 (h264 (native) -> h264 (libx264))   Stream #0:1 -> #0:13 (aac (native) -> aac (native))   Stream #0:0 -> #0:14 (h264 (native) -> h264 (libx264))   Stream #0:1 -> #0:15 (aac (native) -> aac (native)) Press [q] to stop, [?] for help [libx264 @ 0x56270e534a80] using SAR=1/1 [libx264 @ 0x56270e534a80] using cpu capabilities: MMX2 SSE2Fast SSSE3 SSE4.2 AVX FMA3 BMI2 AVX2 [libx264 @ 0x56270e534a80] profile High, level 1.2 [libx264 @ 0x56270e534a80] 264 - core 155 r2917 0a84d98 - H.264/MPEG-4 AVC codec - Copyleft 2003-2018 - http://www.videolan.org/x264.html - options: cabac=1 ref=3 deblock=1:0:0 analyse=0x3:0x113 me=hex subme=7 psy=1 psy_rd=1.00:0.00 mixed_ref=1 me_range=16 chroma_me=1 trellis=1 8x8dct=1 cqm=0 deadzone=21,11 fast_pskip=1 chroma_qp_offset=-2 threads=12 lookahead_threads=1 sliced_threads=0 nr=0 decimate=1 interlaced=0 bluray_compat=0 constrained_intra=0 bframes=1 b_pyramid=0 b_adapt=1 b_bias=0 direct=1 weightb=1 open_gop=0 weightp=2 keyint=250 keyint_min=25 scenecut=40 intra_refresh=0 rc_lookahead=40 rc=abr mbtree=1 bitrate=95 ratetol=1.0 qcomp=0.60 qpmin=0 qpmax=69 qpstep=4 ip_ratio=1.40 aq=1:1.00 [libx264 @ 0x56270e5e0180] using SAR=640/639 [libx264 @ 0x56270e5e0180] using cpu capabilities: MMX2 SSE2Fast SSSE3 SSE4.2 AVX FMA3 BMI2 AVX2 [libx264 @ 0x56270e5e0180] profile High, level 2.1 [libx264 @ 0x56270e5e0180] 264 - core 155 r2917 0a84d98 - H.264/MPEG-4 AVC codec - Copyleft 2003-2018 - http://www.videolan.org/x264.html - options: cabac=1 ref=3 deblock=1:0:0 analyse=0x3:0x113 me=hex subme=7 psy=1 psy_rd=1.00:0.00 mixed_ref=1 me_range=16 chroma_me=1 trellis=1 8x8dct=1 cqm=0 deadzone=21,11 fast_pskip=1 chroma_qp_offset=-2 threads=12 lookahead_threads=1 sliced_threads=0 nr=0 decimate=1 interlaced=0 bluray_compat=0 constrained_intra=0 bframes=1 b_pyramid=0 b_adapt=1 b_bias=0 direct=1 weightb=1 open_gop=0 weightp=2 keyint=250 keyint_min=25 scenecut=40 intra_refresh=0 rc_lookahead=40 rc=abr mbtree=1 bitrate=150 ratetol=1.0 qcomp=0.60 qpmin=0 qpmax=69 qpstep=4 ip_ratio=1.40 aq=1:1.00 [libx264 @ 0x56270e5de380] using SAR=1/1 [libx264 @ 0x56270e5de380] using cpu capabilities: MMX2 SSE2Fast SSSE3 SSE4.2 AVX FMA3 BMI2 AVX2 [libx264 @ 0x56270e5de380] profile High, level 3.0 [libx264 @ 0x56270e5de380] 264 - core 155 r2917 0a84d98 - H.264/MPEG-4 AVC codec - Copyleft 2003-2018 - http://www.videolan.org/x264.html - options: cabac=1 ref=3 deblock=1:0:0 analyse=0x3:0x113 me=hex subme=7 psy=1 psy_rd=1.00:0.00 mixed_ref=1 me_range=16 chroma_me=1 trellis=1 8x8dct=1 cqm=0 deadzone=21,11 fast_pskip=1 chroma_qp_offset=-2 threads=12 lookahead_threads=2 sliced_threads=0 nr=0 decimate=1 interlaced=0 bluray_compat=0 constrained_intra=0 bframes=1 b_pyramid=0 b_adapt=1 b_bias=0 direct=1 weightb=1 open_gop=0 weightp=2 keyint=250 keyint_min=25 scenecut=40 intra_refresh=0 rc_lookahead=40 rc=abr mbtree=1 bitrate=276 ratetol=1.0 qcomp=0.60 qpmin=0 qpmax=69 qpstep=4 ip_ratio=1.40 aq=1:1.00 [libx264 @ 0x56270e57d140] using SAR=1280/1281 [libx264 @ 0x56270e57d140] using cpu capabilities: MMX2 SSE2Fast SSSE3 SSE4.2 AVX FMA3 BMI2 AVX2 [libx264 @ 0x56270e57d140] profile High, level 3.0 [libx264 @ 0x56270e57d140] 264 - core 155 r2917 0a84d98 - H.264/MPEG-4 AVC codec - Copyleft 2003-2018 - http://www.videolan.org/x264.html - options: cabac=1 ref=3 deblock=1:0:0 analyse=0x3:0x113 me=hex subme=7 psy=1 psy_rd=1.00:0.00 mixed_ref=1 me_range=16 chroma_me=1 trellis=1 8x8dct=1 cqm=0 deadzone=21,11 fast_pskip=1 chroma_qp_offset=-2 threads=12 lookahead_threads=2 sliced_threads=0 nr=0 decimate=1 interlaced=0 bluray_compat=0 constrained_intra=0 bframes=1 b_pyramid=0 b_adapt=1 b_bias=0 direct=1 weightb=1 open_gop=0 weightp=2 keyint=250 keyint_min=25 scenecut=40 intra_refresh=0 rc_lookahead=40 rc=abr mbtree=1 bitrate=750 ratetol=1.0 qcomp=0.60 qpmin=0 qpmax=69 qpstep=4 ip_ratio=1.40 aq=1:1.00 [libx264 @ 0x56270e60ba40] using SAR=1/1 [libx264 @ 0x56270e60ba40] using cpu capabilities: MMX2 SSE2Fast SSSE3 SSE4.2 AVX FMA3 BMI2 AVX2 [libx264 @ 0x56270e60ba40] profile High, level 3.1 [libx264 @ 0x56270e60ba40] 264 - core 155 r2917 0a84d98 - H.264/MPEG-4 AVC codec - Copyleft 2003-2018 - http://www.videolan.org/x264.html - options: cabac=1 ref=3 deblock=1:0:0 analyse=0x3:0x113 me=hex subme=7 psy=1 psy_rd=1.00:0.00 mixed_ref=1 me_range=16 chroma_me=1 trellis=1 8x8dct=1 cqm=0 deadzone=21,11 fast_pskip=1 chroma_qp_offset=-2 threads=12 lookahead_threads=2 sliced_threads=0 nr=0 decimate=1 interlaced=0 bluray_compat=0 constrained_intra=0 bframes=1 b_pyramid=0 b_adapt=1 b_bias=0 direct=1 weightb=1 open_gop=0 weightp=2 keyint=250 keyint_min=25 scenecut=40 intra_refresh=0 rc_lookahead=40 rc=abr mbtree=1 bitrate=2048 ratetol=1.0 qcomp=0.60 qpmin=0 qpmax=69 qpstep=4 ip_ratio=1.40 aq=1:1.00 [libx264 @ 0x56270e589240] using SAR=1/1 [libx264 @ 0x56270e589240] using cpu capabilities: MMX2 SSE2Fast SSSE3 SSE4.2 AVX FMA3 BMI2 AVX2 [libx264 @ 0x56270e589240] profile High, level 4.0 [libx264 @ 0x56270e589240] 264 - core 155 r2917 0a84d98 - H.264/MPEG-4 AVC codec - Copyleft 2003-2018 - http://www.videolan.org/x264.html - options: cabac=1 ref=3 deblock=1:0:0 analyse=0x3:0x113 me=hex subme=7 psy=1 psy_rd=1.00:0.00 mixed_ref=1 me_range=16 chroma_me=1 trellis=1 8x8dct=1 cqm=0 deadzone=21,11 fast_pskip=1 chroma_qp_offset=-2 threads=12 lookahead_threads=2 sliced_threads=0 nr=0 decimate=1 interlaced=0 bluray_compat=0 constrained_intra=0 bframes=1 b_pyramid=0 b_adapt=1 b_bias=0 direct=1 weightb=1 open_gop=0 weightp=2 keyint=250 keyint_min=25 scenecut=40 intra_refresh=0 rc_lookahead=40 rc=abr mbtree=1 bitrate=4096 ratetol=1.0 qcomp=0.60 qpmin=0 qpmax=69 qpstep=4 ip_ratio=1.40 aq=1:1.00 [libx264 @ 0x56270e57f780] using SAR=1/1 [libx264 @ 0x56270e57f780] using cpu capabilities: MMX2 SSE2Fast SSSE3 SSE4.2 AVX FMA3 BMI2 AVX2 [libx264 @ 0x56270e57f780] profile High, level 5.0 [libx264 @ 0x56270e57f780] 264 - core 155 r2917 0a84d98 - H.264/MPEG-4 AVC codec - Copyleft 2003-2018 - http://www.videolan.org/x264.html - options: cabac=1 ref=3 deblock=1:0:0 analyse=0x3:0x113 me=hex subme=7 psy=1 psy_rd=1.00:0.00 mixed_ref=1 me_range=16 chroma_me=1 trellis=1 8x8dct=1 cqm=0 deadzone=21,11 fast_pskip=1 chroma_qp_offset=-2 threads=12 lookahead_threads=2 sliced_threads=0 nr=0 decimate=1 interlaced=0 bluray_compat=0 constrained_intra=0 bframes=1 b_pyramid=0 b_adapt=1 b_bias=0 direct=1 weightb=1 open_gop=0 weightp=2 keyint=250 keyint_min=25 scenecut=40 intra_refresh=0 rc_lookahead=40 rc=abr mbtree=1 bitrate=6144 ratetol=1.0 qcomp=0.60 qpmin=0 qpmax=69 qpstep=4 ip_ratio=1.40 aq=1:1.00 [libx264 @ 0x56270e5834c0] using SAR=1/1 [libx264 @ 0x56270e5834c0] using cpu capabilities: MMX2 SSE2Fast SSSE3 SSE4.2 AVX FMA3 BMI2 AVX2 [libx264 @ 0x56270e5834c0] profile High, level 5.1 [libx264 @ 0x56270e5834c0] 264 - core 155 r2917 0a84d98 - H.264/MPEG-4 AVC codec - Copyleft 2003-2018 - http://www.videolan.org/x264.html - options: cabac=1 ref=3 deblock=1:0:0 analyse=0x3:0x113 me=hex subme=7 psy=1 psy_rd=1.00:0.00 mixed_ref=1 me_range=16 chroma_me=1 trellis=1 8x8dct=1 cqm=0 deadzone=21,11 fast_pskip=1 chroma_qp_offset=-2 threads=12 lookahead_threads=2 sliced_threads=0 nr=0 decimate=1 interlaced=0 bluray_compat=0 constrained_intra=0 bframes=1 b_pyramid=0 b_adapt=1 b_bias=0 direct=1 weightb=1 open_gop=0 weightp=2 keyint=250 keyint_min=25 scenecut=40 intra_refresh=0 rc_lookahead=40 rc=abr mbtree=1 bitrate=17408 ratetol=1.0 qcomp=0.60 qpmin=0 qpmax=69 qpstep=4 ip_ratio=1.40 aq=1:1.00 frame=    5 fps=0.0 q=0.0 q=0.0 q=0.0 q=0.0 q=0.0 q=0.0 q=0.0 q=0.0 size=N/A time=-577014:32:22.77 bitrate=N/A speed=N/A      [] []
[2020-10-26T14:34:06.577130+00:00] FFmpeg_Streaming.INFO: ffprobe running command '/usr/bin/ffprobe' '-help' '-loglevel' 'quiet' [] []
[2020-10-26T14:34:06.668954+00:00] FFmpeg_Streaming.INFO: ffprobe executed command successfully [] []
[2020-10-26T14:34:06.669231+00:00] FFmpeg_Streaming.INFO: ffprobe running command '/usr/bin/ffprobe' 'vid/Harmonize.mp4' '-show_streams' '-print_format' 'json' [] []
[2020-10-26T14:34:06.781227+00:00] FFmpeg_Streaming.INFO: ffprobe executed command successfully [] []
[2020-10-26T14:34:06.786078+00:00] FFmpeg_Streaming.INFO: ffmpeg running command '/usr/bin/ffmpeg' '-y' '-i' 'vid/Harmonize.mp4' '-c:v' 'libx264' '-c:a' 'aac' '-bf' '1' '-keyint_min' '25' '-g' '250' '-sc_threshold' '40' '-use_timeline' '1' '-use_template' '1' '-init_seg_name' 'dash-stream_init_$RepresentationID$.$ext$' '-media_seg_name' 'dash-stream_chunk_$RepresentationID$_$Number%05d$.$ext$' '-seg_duration' '30' '-hls_playlist' '0' '-f' 'dash' '-adaptation_sets' 'id=0,streams=v id=1,streams=a' '-map' '0' '-s:v:0' '256x144' '-b:v:0' '95k' '-map' '0' '-s:v:1' '426x240' '-b:v:1' '150k' '-map' '0' '-s:v:2' '640x360' '-b:v:2' '276k' '-map' '0' '-s:v:3' '854x480' '-b:v:3' '750k' '-map' '0' '-s:v:4' '1280x720' '-b:v:4' '2048k' '-map' '0' '-s:v:5' '1920x1080' '-b:v:5' '4096k' '-map' '0' '-s:v:6' '2560x1440' '-b:v:6' '6144k' '-map' '0' '-s:v:7' '3840x2160' '-b:v:7' '17408k' '-strict' '-2' '-threads' '12' 'var/media/dash-stream.mpd' [] []
[2020-10-26T14:34:06.856987+00:00] FFmpeg_Streaming.INFO: ffprobe running command '/usr/bin/ffprobe' 'vid/Harmonize.mp4' '-show_format' '-print_format' 'json' [] []
[2020-10-26T14:34:06.976513+00:00] FFmpeg_Streaming.INFO: ffprobe executed command successfully [] []
[2020-10-26T14:34:08.232287+00:00] FFmpeg_Streaming.ERROR: ffmpeg failed to execute command '/usr/bin/ffmpeg' '-y' '-i' 'vid/Harmonize.mp4' '-c:v' 'libx264' '-c:a' 'aac' '-bf' '1' '-keyint_min' '25' '-g' '250' '-sc_threshold' '40' '-use_timeline' '1' '-use_template' '1' '-init_seg_name' 'dash-stream_init_$RepresentationID$.$ext$' '-media_seg_name' 'dash-stream_chunk_$RepresentationID$_$Number%05d$.$ext$' '-seg_duration' '30' '-hls_playlist' '0' '-f' 'dash' '-adaptation_sets' 'id=0,streams=v id=1,streams=a' '-map' '0' '-s:v:0' '256x144' '-b:v:0' '95k' '-map' '0' '-s:v:1' '426x240' '-b:v:1' '150k' '-map' '0' '-s:v:2' '640x360' '-b:v:2' '276k' '-map' '0' '-s:v:3' '854x480' '-b:v:3' '750k' '-map' '0' '-s:v:4' '1280x720' '-b:v:4' '2048k' '-map' '0' '-s:v:5' '1920x1080' '-b:v:5' '4096k' '-map' '0' '-s:v:6' '2560x1440' '-b:v:6' '6144k' '-map' '0' '-s:v:7' '3840x2160' '-b:v:7' '17408k' '-strict' '-2' '-threads' '12' 'var/media/dash-stream.mpd': ffmpeg version 4.2.4-1ubuntu0.1 Copyright (c) 2000-2020 the FFmpeg developers   built with gcc 9 (Ubuntu 9.3.0-10ubuntu2)   configuration: --prefix=/usr --extra-version=1ubuntu0.1 --toolchain=hardened --libdir=/usr/lib/x86_64-linux-gnu --incdir=/usr/include/x86_64-linux-gnu --arch=amd64 --enable-gpl --disable-stripping --enable-avresample --disable-filter=resample --enable-avisynth --enable-gnutls --enable-ladspa --enable-libaom --enable-libass --enable-libbluray --enable-libbs2b --enable-libcaca --enable-libcdio --enable-libcodec2 --enable-libflite --enable-libfontconfig --enable-libfreetype --enable-libfribidi --enable-libgme --enable-libgsm --enable-libjack --enable-libmp3lame --enable-libmysofa --enable-libopenjpeg --enable-libopenmpt --enable-libopus --enable-libpulse --enable-librsvg --enable-librubberband --enable-libshine --enable-libsnappy --enable-libsoxr --enable-libspeex --enable-libssh --enable-libtheora --enable-libtwolame --enable-libvidstab --enable-libvorbis --enable-libvpx --enable-libwavpack --enable-libwebp --enable-libx265 --enable-libxml2 --enable-libxvid --enable-libzmq --enable-libzvbi --enable-lv2 --enable-omx --enable-openal --enable-opencl --enable-opengl --enable-sdl2 --enable-libdc1394 --enable-libdrm --enable-libiec61883 --enable-nvenc --enable-chromaprint --enable-frei0r --enable-libx264 --enable-shared   libavutil      56. 31.100 / 56. 31.100   libavcodec     58. 54.100 / 58. 54.100   libavformat    58. 29.100 / 58. 29.100   libavdevice    58.  8.100 / 58.  8.100   libavfilter     7. 57.100 /  7. 57.100   libavresample   4.  0.  0 /  4.  0.  0   libswscale      5.  5.100 /  5.  5.100   libswresample   3.  5.100 /  3.  5.100   libpostproc    55.  5.100 / 55.  5.100 Input #0, mov,mp4,m4a,3gp,3g2,mj2, from 'vid/Harmonize.mp4':   Metadata:     major_brand     : mp42     minor_version   : 0     compatible_brands: isommp42     creation_time   : 2020-08-12T03:05:16.000000Z   Duration: 00:03:36.09, start: 0.000000, bitrate: 558 kb/s     Stream #0:0(und): Video: h264 (Constrained Baseline) (avc1 / 0x31637661), yuv420p(tv, bt709), 640x360 [SAR 1:1 DAR 16:9], 460 kb/s, 25 fps, 25 tbr, 12800 tbn, 50 tbc (default)     Metadata:       creation_time   : 2020-08-12T03:05:16.000000Z       handler_name    : ISO Media file produced by Google Inc. Created on: 08/11/2020.     Stream #0:1(eng): Audio: aac (LC) (mp4a / 0x6134706D), 44100 Hz, stereo, fltp, 96 kb/s (default)     Metadata:       creation_time   : 2020-08-12T03:05:16.000000Z       handler_name    : ISO Media file produced by Google Inc. Created on: 08/11/2020. Stream mapping:   Stream #0:0 -> #0:0 (h264 (native) -> h264 (libx264))   Stream #0:1 -> #0:1 (aac (native) -> aac (native))   Stream #0:0 -> #0:2 (h264 (native) -> h264 (libx264))   Stream #0:1 -> #0:3 (aac (native) -> aac (native))   Stream #0:0 -> #0:4 (h264 (native) -> h264 (libx264))   Stream #0:1 -> #0:5 (aac (native) -> aac (native))   Stream #0:0 -> #0:6 (h264 (native) -> h264 (libx264))   Stream #0:1 -> #0:7 (aac (native) -> aac (native))   Stream #0:0 -> #0:8 (h264 (native) -> h264 (libx264))   Stream #0:1 -> #0:9 (aac (native) -> aac (native))   Stream #0:0 -> #0:10 (h264 (native) -> h264 (libx264))   Stream #0:1 -> #0:11 (aac (native) -> aac (native))   Stream #0:0 -> #0:12 (h264 (native) -> h264 (libx264))   Stream #0:1 -> #0:13 (aac (native) -> aac (native))   Stream #0:0 -> #0:14 (h264 (native) -> h264 (libx264))   Stream #0:1 -> #0:15 (aac (native) -> aac (native)) Press [q] to stop, [?] for help [libx264 @ 0x559822e1ba80] using SAR=1/1 [libx264 @ 0x559822e1ba80] using cpu capabilities: MMX2 SSE2Fast SSSE3 SSE4.2 AVX FMA3 BMI2 AVX2 [libx264 @ 0x559822e1ba80] profile High, level 1.2 [libx264 @ 0x559822e1ba80] 264 - core 155 r2917 0a84d98 - H.264/MPEG-4 AVC codec - Copyleft 2003-2018 - http://www.videolan.org/x264.html - options: cabac=1 ref=3 deblock=1:0:0 analyse=0x3:0x113 me=hex subme=7 psy=1 psy_rd=1.00:0.00 mixed_ref=1 me_range=16 chroma_me=1 trellis=1 8x8dct=1 cqm=0 deadzone=21,11 fast_pskip=1 chroma_qp_offset=-2 threads=12 lookahead_threads=1 sliced_threads=0 nr=0 decimate=1 interlaced=0 bluray_compat=0 constrained_intra=0 bframes=1 b_pyramid=0 b_adapt=1 b_bias=0 direct=1 weightb=1 open_gop=0 weightp=2 keyint=250 keyint_min=25 scenecut=40 intra_refresh=0 rc_lookahead=40 rc=abr mbtree=1 bitrate=95 ratetol=1.0 qcomp=0.60 qpmin=0 qpmax=69 qpstep=4 ip_ratio=1.40 aq=1:1.00 [libx264 @ 0x559822ec7180] using SAR=640/639 [libx264 @ 0x559822ec7180] using cpu capabilities: MMX2 SSE2Fast SSSE3 SSE4.2 AVX FMA3 BMI2 AVX2 [libx264 @ 0x559822ec7180] profile High, level 2.1 [libx264 @ 0x559822ec7180] 264 - core 155 r2917 0a84d98 - H.264/MPEG-4 AVC codec - Copyleft 2003-2018 - http://www.videolan.org/x264.html - options: cabac=1 ref=3 deblock=1:0:0 analyse=0x3:0x113 me=hex subme=7 psy=1 psy_rd=1.00:0.00 mixed_ref=1 me_range=16 chroma_me=1 trellis=1 8x8dct=1 cqm=0 deadzone=21,11 fast_pskip=1 chroma_qp_offset=-2 threads=12 lookahead_threads=1 sliced_threads=0 nr=0 decimate=1 interlaced=0 bluray_compat=0 constrained_intra=0 bframes=1 b_pyramid=0 b_adapt=1 b_bias=0 direct=1 weightb=1 open_gop=0 weightp=2 keyint=250 keyint_min=25 scenecut=40 intra_refresh=0 rc_lookahead=40 rc=abr mbtree=1 bitrate=150 ratetol=1.0 qcomp=0.60 qpmin=0 qpmax=69 qpstep=4 ip_ratio=1.40 aq=1:1.00 [libx264 @ 0x559822ec5380] using SAR=1/1 [libx264 @ 0x559822ec5380] using cpu capabilities: MMX2 SSE2Fast SSSE3 SSE4.2 AVX FMA3 BMI2 AVX2 [libx264 @ 0x559822ec5380] profile High, level 3.0 [libx264 @ 0x559822ec5380] 264 - core 155 r2917 0a84d98 - H.264/MPEG-4 AVC codec - Copyleft 2003-2018 - http://www.videolan.org/x264.html - options: cabac=1 ref=3 deblock=1:0:0 analyse=0x3:0x113 me=hex subme=7 psy=1 psy_rd=1.00:0.00 mixed_ref=1 me_range=16 chroma_me=1 trellis=1 8x8dct=1 cqm=0 deadzone=21,11 fast_pskip=1 chroma_qp_offset=-2 threads=12 lookahead_threads=2 sliced_threads=0 nr=0 decimate=1 interlaced=0 bluray_compat=0 constrained_intra=0 bframes=1 b_pyramid=0 b_adapt=1 b_bias=0 direct=1 weightb=1 open_gop=0 weightp=2 keyint=250 keyint_min=25 scenecut=40 intra_refresh=0 rc_lookahead=40 rc=abr mbtree=1 bitrate=276 ratetol=1.0 qcomp=0.60 qpmin=0 qpmax=69 qpstep=4 ip_ratio=1.40 aq=1:1.00 [libx264 @ 0x559822e64140] using SAR=1280/1281 [libx264 @ 0x559822e64140] using cpu capabilities: MMX2 SSE2Fast SSSE3 SSE4.2 AVX FMA3 BMI2 AVX2 [libx264 @ 0x559822e64140] profile High, level 3.0 [libx264 @ 0x559822e64140] 264 - core 155 r2917 0a84d98 - H.264/MPEG-4 AVC codec - Copyleft 2003-2018 - http://www.videolan.org/x264.html - options: cabac=1 ref=3 deblock=1:0:0 analyse=0x3:0x113 me=hex subme=7 psy=1 psy_rd=1.00:0.00 mixed_ref=1 me_range=16 chroma_me=1 trellis=1 8x8dct=1 cqm=0 deadzone=21,11 fast_pskip=1 chroma_qp_offset=-2 threads=12 lookahead_threads=2 sliced_threads=0 nr=0 decimate=1 interlaced=0 bluray_compat=0 constrained_intra=0 bframes=1 b_pyramid=0 b_adapt=1 b_bias=0 direct=1 weightb=1 open_gop=0 weightp=2 keyint=250 keyint_min=25 scenecut=40 intra_refresh=0 rc_lookahead=40 rc=abr mbtree=1 bitrate=750 ratetol=1.0 qcomp=0.60 qpmin=0 qpmax=69 qpstep=4 ip_ratio=1.40 aq=1:1.00 [libx264 @ 0x559822ef2a40] using SAR=1/1 [libx264 @ 0x559822ef2a40] using cpu capabilities: MMX2 SSE2Fast SSSE3 SSE4.2 AVX FMA3 BMI2 AVX2 [libx264 @ 0x559822ef2a40] profile High, level 3.1 [libx264 @ 0x559822ef2a40] 264 - core 155 r2917 0a84d98 - H.264/MPEG-4 AVC codec - Copyleft 2003-2018 - http://www.videolan.org/x264.html - options: cabac=1 ref=3 deblock=1:0:0 analyse=0x3:0x113 me=hex subme=7 psy=1 psy_rd=1.00:0.00 mixed_ref=1 me_range=16 chroma_me=1 trellis=1 8x8dct=1 cqm=0 deadzone=21,11 fast_pskip=1 chroma_qp_offset=-2 threads=12 lookahead_threads=2 sliced_threads=0 nr=0 decimate=1 interlaced=0 bluray_compat=0 constrained_intra=0 bframes=1 b_pyramid=0 b_adapt=1 b_bias=0 direct=1 weightb=1 open_gop=0 weightp=2 keyint=250 keyint_min=25 scenecut=40 intra_refresh=0 rc_lookahead=40 rc=abr mbtree=1 bitrate=2048 ratetol=1.0 qcomp=0.60 qpmin=0 qpmax=69 qpstep=4 ip_ratio=1.40 aq=1:1.00 [libx264 @ 0x559822e70240] using SAR=1/1 [libx264 @ 0x559822e70240] using cpu capabilities: MMX2 SSE2Fast SSSE3 SSE4.2 AVX FMA3 BMI2 AVX2 [libx264 @ 0x559822e70240] profile High, level 4.0 [libx264 @ 0x559822e70240] 264 - core 155 r2917 0a84d98 - H.264/MPEG-4 AVC codec - Copyleft 2003-2018 - http://www.videolan.org/x264.html - options: cabac=1 ref=3 deblock=1:0:0 analyse=0x3:0x113 me=hex subme=7 psy=1 psy_rd=1.00:0.00 mixed_ref=1 me_range=16 chroma_me=1 trellis=1 8x8dct=1 cqm=0 deadzone=21,11 fast_pskip=1 chroma_qp_offset=-2 threads=12 lookahead_threads=2 sliced_threads=0 nr=0 decimate=1 interlaced=0 bluray_compat=0 constrained_intra=0 bframes=1 b_pyramid=0 b_adapt=1 b_bias=0 direct=1 weightb=1 open_gop=0 weightp=2 keyint=250 keyint_min=25 scenecut=40 intra_refresh=0 rc_lookahead=40 rc=abr mbtree=1 bitrate=4096 ratetol=1.0 qcomp=0.60 qpmin=0 qpmax=69 qpstep=4 ip_ratio=1.40 aq=1:1.00 [libx264 @ 0x559822e66780] using SAR=1/1 [libx264 @ 0x559822e66780] using cpu capabilities: MMX2 SSE2Fast SSSE3 SSE4.2 AVX FMA3 BMI2 AVX2 [libx264 @ 0x559822e66780] profile High, level 5.0 [libx264 @ 0x559822e66780] 264 - core 155 r2917 0a84d98 - H.264/MPEG-4 AVC codec - Copyleft 2003-2018 - http://www.videolan.org/x264.html - options: cabac=1 ref=3 deblock=1:0:0 analyse=0x3:0x113 me=hex subme=7 psy=1 psy_rd=1.00:0.00 mixed_ref=1 me_range=16 chroma_me=1 trellis=1 8x8dct=1 cqm=0 deadzone=21,11 fast_pskip=1 chroma_qp_offset=-2 threads=12 lookahead_threads=2 sliced_threads=0 nr=0 decimate=1 interlaced=0 bluray_compat=0 constrained_intra=0 bframes=1 b_pyramid=0 b_adapt=1 b_bias=0 direct=1 weightb=1 open_gop=0 weightp=2 keyint=250 keyint_min=25 scenecut=40 intra_refresh=0 rc_lookahead=40 rc=abr mbtree=1 bitrate=6144 ratetol=1.0 qcomp=0.60 qpmin=0 qpmax=69 qpstep=4 ip_ratio=1.40 aq=1:1.00 [libx264 @ 0x559822e6a4c0] using SAR=1/1 [libx264 @ 0x559822e6a4c0] using cpu capabilities: MMX2 SSE2Fast SSSE3 SSE4.2 AVX FMA3 BMI2 AVX2 [libx264 @ 0x559822e6a4c0] profile High, level 5.1 [libx264 @ 0x559822e6a4c0] 264 - core 155 r2917 0a84d98 - H.264/MPEG-4 AVC codec - Copyleft 2003-2018 - http://www.videolan.org/x264.html - options: cabac=1 ref=3 deblock=1:0:0 analyse=0x3:0x113 me=hex subme=7 psy=1 psy_rd=1.00:0.00 mixed_ref=1 me_range=16 chroma_me=1 trellis=1 8x8dct=1 cqm=0 deadzone=21,11 fast_pskip=1 chroma_qp_offset=-2 threads=12 lookahead_threads=2 sliced_threads=0 nr=0 decimate=1 interlaced=0 bluray_compat=0 constrained_intra=0 bframes=1 b_pyramid=0 b_adapt=1 b_bias=0 direct=1 weightb=1 open_gop=0 weightp=2 keyint=250 keyint_min=25 scenecut=40 intra_refresh=0 rc_lookahead=40 rc=abr mbtree=1 bitrate=17408 ratetol=1.0 qcomp=0.60 qpmin=0 qpmax=69 qpstep=4 ip_ratio=1.40 aq=1:1.00 frame=    7 fps=0.0 q=0.0 q=0.0 q=0.0 q=0.0 q=0.0 q=0.0 q=0.0 q=0.0 size=N/A time=-577014:32:22.77 bitrate=N/A speed=N/A      [] []
[2020-10-26T14:34:53.763540+00:00] FFmpeg_Streaming.INFO: ffprobe running command '/usr/bin/ffprobe' '-help' '-loglevel' 'quiet' [] []
[2020-10-26T14:34:54.130716+00:00] FFmpeg_Streaming.INFO: ffprobe executed command successfully [] []
[2020-10-26T14:34:54.131005+00:00] FFmpeg_Streaming.INFO: ffprobe running command '/usr/bin/ffprobe' 'vid/Harmonize.mp4' '-show_streams' '-print_format' 'json' [] []
[2020-10-26T14:34:54.234432+00:00] FFmpeg_Streaming.INFO: ffprobe executed command successfully [] []
[2020-10-26T14:34:54.238779+00:00] FFmpeg_Streaming.INFO: ffmpeg running command '/usr/bin/ffmpeg' '-y' '-i' 'vid/Harmonize.mp4' '-c:v' 'libx264' '-c:a' 'aac' '-bf' '1' '-keyint_min' '25' '-g' '250' '-sc_threshold' '40' '-use_timeline' '1' '-use_template' '1' '-init_seg_name' 'dash-stream_init_$RepresentationID$.$ext$' '-media_seg_name' 'dash-stream_chunk_$RepresentationID$_$Number%05d$.$ext$' '-seg_duration' '30' '-hls_playlist' '0' '-f' 'dash' '-adaptation_sets' 'id=0,streams=v id=1,streams=a' '-map' '0' '-s:v:0' '256x144' '-b:v:0' '95k' '-map' '0' '-s:v:1' '426x240' '-b:v:1' '150k' '-map' '0' '-s:v:2' '640x360' '-b:v:2' '276k' '-map' '0' '-s:v:3' '854x480' '-b:v:3' '750k' '-map' '0' '-s:v:4' '1280x720' '-b:v:4' '2048k' '-map' '0' '-s:v:5' '1920x1080' '-b:v:5' '4096k' '-map' '0' '-s:v:6' '2560x1440' '-b:v:6' '6144k' '-map' '0' '-s:v:7' '3840x2160' '-b:v:7' '17408k' '-strict' '-2' '-threads' '12' 'var/media/dash-stream.mpd' [] []
[2020-10-26T14:34:54.302335+00:00] FFmpeg_Streaming.INFO: ffprobe running command '/usr/bin/ffprobe' 'vid/Harmonize.mp4' '-show_format' '-print_format' 'json' [] []
[2020-10-26T14:34:54.419865+00:00] FFmpeg_Streaming.INFO: ffprobe executed command successfully [] []
[2020-10-26T14:34:55.516734+00:00] FFmpeg_Streaming.ERROR: ffmpeg failed to execute command '/usr/bin/ffmpeg' '-y' '-i' 'vid/Harmonize.mp4' '-c:v' 'libx264' '-c:a' 'aac' '-bf' '1' '-keyint_min' '25' '-g' '250' '-sc_threshold' '40' '-use_timeline' '1' '-use_template' '1' '-init_seg_name' 'dash-stream_init_$RepresentationID$.$ext$' '-media_seg_name' 'dash-stream_chunk_$RepresentationID$_$Number%05d$.$ext$' '-seg_duration' '30' '-hls_playlist' '0' '-f' 'dash' '-adaptation_sets' 'id=0,streams=v id=1,streams=a' '-map' '0' '-s:v:0' '256x144' '-b:v:0' '95k' '-map' '0' '-s:v:1' '426x240' '-b:v:1' '150k' '-map' '0' '-s:v:2' '640x360' '-b:v:2' '276k' '-map' '0' '-s:v:3' '854x480' '-b:v:3' '750k' '-map' '0' '-s:v:4' '1280x720' '-b:v:4' '2048k' '-map' '0' '-s:v:5' '1920x1080' '-b:v:5' '4096k' '-map' '0' '-s:v:6' '2560x1440' '-b:v:6' '6144k' '-map' '0' '-s:v:7' '3840x2160' '-b:v:7' '17408k' '-strict' '-2' '-threads' '12' 'var/media/dash-stream.mpd': ffmpeg version 4.2.4-1ubuntu0.1 Copyright (c) 2000-2020 the FFmpeg developers   built with gcc 9 (Ubuntu 9.3.0-10ubuntu2)   configuration: --prefix=/usr --extra-version=1ubuntu0.1 --toolchain=hardened --libdir=/usr/lib/x86_64-linux-gnu --incdir=/usr/include/x86_64-linux-gnu --arch=amd64 --enable-gpl --disable-stripping --enable-avresample --disable-filter=resample --enable-avisynth --enable-gnutls --enable-ladspa --enable-libaom --enable-libass --enable-libbluray --enable-libbs2b --enable-libcaca --enable-libcdio --enable-libcodec2 --enable-libflite --enable-libfontconfig --enable-libfreetype --enable-libfribidi --enable-libgme --enable-libgsm --enable-libjack --enable-libmp3lame --enable-libmysofa --enable-libopenjpeg --enable-libopenmpt --enable-libopus --enable-libpulse --enable-librsvg --enable-librubberband --enable-libshine --enable-libsnappy --enable-libsoxr --enable-libspeex --enable-libssh --enable-libtheora --enable-libtwolame --enable-libvidstab --enable-libvorbis --enable-libvpx --enable-libwavpack --enable-libwebp --enable-libx265 --enable-libxml2 --enable-libxvid --enable-libzmq --enable-libzvbi --enable-lv2 --enable-omx --enable-openal --enable-opencl --enable-opengl --enable-sdl2 --enable-libdc1394 --enable-libdrm --enable-libiec61883 --enable-nvenc --enable-chromaprint --enable-frei0r --enable-libx264 --enable-shared   libavutil      56. 31.100 / 56. 31.100   libavcodec     58. 54.100 / 58. 54.100   libavformat    58. 29.100 / 58. 29.100   libavdevice    58.  8.100 / 58.  8.100   libavfilter     7. 57.100 /  7. 57.100   libavresample   4.  0.  0 /  4.  0.  0   libswscale      5.  5.100 /  5.  5.100   libswresample   3.  5.100 /  3.  5.100   libpostproc    55.  5.100 / 55.  5.100 Input #0, mov,mp4,m4a,3gp,3g2,mj2, from 'vid/Harmonize.mp4':   Metadata:     major_brand     : mp42     minor_version   : 0     compatible_brands: isommp42     creation_time   : 2020-08-12T03:05:16.000000Z   Duration: 00:03:36.09, start: 0.000000, bitrate: 558 kb/s     Stream #0:0(und): Video: h264 (Constrained Baseline) (avc1 / 0x31637661), yuv420p(tv, bt709), 640x360 [SAR 1:1 DAR 16:9], 460 kb/s, 25 fps, 25 tbr, 12800 tbn, 50 tbc (default)     Metadata:       creation_time   : 2020-08-12T03:05:16.000000Z       handler_name    : ISO Media file produced by Google Inc. Created on: 08/11/2020.     Stream #0:1(eng): Audio: aac (LC) (mp4a / 0x6134706D), 44100 Hz, stereo, fltp, 96 kb/s (default)     Metadata:       creation_time   : 2020-08-12T03:05:16.000000Z       handler_name    : ISO Media file produced by Google Inc. Created on: 08/11/2020. Stream mapping:   Stream #0:0 -> #0:0 (h264 (native) -> h264 (libx264))   Stream #0:1 -> #0:1 (aac (native) -> aac (native))   Stream #0:0 -> #0:2 (h264 (native) -> h264 (libx264))   Stream #0:1 -> #0:3 (aac (native) -> aac (native))   Stream #0:0 -> #0:4 (h264 (native) -> h264 (libx264))   Stream #0:1 -> #0:5 (aac (native) -> aac (native))   Stream #0:0 -> #0:6 (h264 (native) -> h264 (libx264))   Stream #0:1 -> #0:7 (aac (native) -> aac (native))   Stream #0:0 -> #0:8 (h264 (native) -> h264 (libx264))   Stream #0:1 -> #0:9 (aac (native) -> aac (native))   Stream #0:0 -> #0:10 (h264 (native) -> h264 (libx264))   Stream #0:1 -> #0:11 (aac (native) -> aac (native))   Stream #0:0 -> #0:12 (h264 (native) -> h264 (libx264))   Stream #0:1 -> #0:13 (aac (native) -> aac (native))   Stream #0:0 -> #0:14 (h264 (native) -> h264 (libx264))   Stream #0:1 -> #0:15 (aac (native) -> aac (native)) Press [q] to stop, [?] for help [libx264 @ 0x55ad1e62ea80] using SAR=1/1 [libx264 @ 0x55ad1e62ea80] using cpu capabilities: MMX2 SSE2Fast SSSE3 SSE4.2 AVX FMA3 BMI2 AVX2 [libx264 @ 0x55ad1e62ea80] profile High, level 1.2 [libx264 @ 0x55ad1e62ea80] 264 - core 155 r2917 0a84d98 - H.264/MPEG-4 AVC codec - Copyleft 2003-2018 - http://www.videolan.org/x264.html - options: cabac=1 ref=3 deblock=1:0:0 analyse=0x3:0x113 me=hex subme=7 psy=1 psy_rd=1.00:0.00 mixed_ref=1 me_range=16 chroma_me=1 trellis=1 8x8dct=1 cqm=0 deadzone=21,11 fast_pskip=1 chroma_qp_offset=-2 threads=12 lookahead_threads=1 sliced_threads=0 nr=0 decimate=1 interlaced=0 bluray_compat=0 constrained_intra=0 bframes=1 b_pyramid=0 b_adapt=1 b_bias=0 direct=1 weightb=1 open_gop=0 weightp=2 keyint=250 keyint_min=25 scenecut=40 intra_refresh=0 rc_lookahead=40 rc=abr mbtree=1 bitrate=95 ratetol=1.0 qcomp=0.60 qpmin=0 qpmax=69 qpstep=4 ip_ratio=1.40 aq=1:1.00 [libx264 @ 0x55ad1e6da180] using SAR=640/639 [libx264 @ 0x55ad1e6da180] using cpu capabilities: MMX2 SSE2Fast SSSE3 SSE4.2 AVX FMA3 BMI2 AVX2 [libx264 @ 0x55ad1e6da180] profile High, level 2.1 [libx264 @ 0x55ad1e6da180] 264 - core 155 r2917 0a84d98 - H.264/MPEG-4 AVC codec - Copyleft 2003-2018 - http://www.videolan.org/x264.html - options: cabac=1 ref=3 deblock=1:0:0 analyse=0x3:0x113 me=hex subme=7 psy=1 psy_rd=1.00:0.00 mixed_ref=1 me_range=16 chroma_me=1 trellis=1 8x8dct=1 cqm=0 deadzone=21,11 fast_pskip=1 chroma_qp_offset=-2 threads=12 lookahead_threads=1 sliced_threads=0 nr=0 decimate=1 interlaced=0 bluray_compat=0 constrained_intra=0 bframes=1 b_pyramid=0 b_adapt=1 b_bias=0 direct=1 weightb=1 open_gop=0 weightp=2 keyint=250 keyint_min=25 scenecut=40 intra_refresh=0 rc_lookahead=40 rc=abr mbtree=1 bitrate=150 ratetol=1.0 qcomp=0.60 qpmin=0 qpmax=69 qpstep=4 ip_ratio=1.40 aq=1:1.00 [libx264 @ 0x55ad1e6d8380] using SAR=1/1 [libx264 @ 0x55ad1e6d8380] using cpu capabilities: MMX2 SSE2Fast SSSE3 SSE4.2 AVX FMA3 BMI2 AVX2 [libx264 @ 0x55ad1e6d8380] profile High, level 3.0 [libx264 @ 0x55ad1e6d8380] 264 - core 155 r2917 0a84d98 - H.264/MPEG-4 AVC codec - Copyleft 2003-2018 - http://www.videolan.org/x264.html - options: cabac=1 ref=3 deblock=1:0:0 analyse=0x3:0x113 me=hex subme=7 psy=1 psy_rd=1.00:0.00 mixed_ref=1 me_range=16 chroma_me=1 trellis=1 8x8dct=1 cqm=0 deadzone=21,11 fast_pskip=1 chroma_qp_offset=-2 threads=12 lookahead_threads=2 sliced_threads=0 nr=0 decimate=1 interlaced=0 bluray_compat=0 constrained_intra=0 bframes=1 b_pyramid=0 b_adapt=1 b_bias=0 direct=1 weightb=1 open_gop=0 weightp=2 keyint=250 keyint_min=25 scenecut=40 intra_refresh=0 rc_lookahead=40 rc=abr mbtree=1 bitrate=276 ratetol=1.0 qcomp=0.60 qpmin=0 qpmax=69 qpstep=4 ip_ratio=1.40 aq=1:1.00 [libx264 @ 0x55ad1e677140] using SAR=1280/1281 [libx264 @ 0x55ad1e677140] using cpu capabilities: MMX2 SSE2Fast SSSE3 SSE4.2 AVX FMA3 BMI2 AVX2 [libx264 @ 0x55ad1e677140] profile High, level 3.0 [libx264 @ 0x55ad1e677140] 264 - core 155 r2917 0a84d98 - H.264/MPEG-4 AVC codec - Copyleft 2003-2018 - http://www.videolan.org/x264.html - options: cabac=1 ref=3 deblock=1:0:0 analyse=0x3:0x113 me=hex subme=7 psy=1 psy_rd=1.00:0.00 mixed_ref=1 me_range=16 chroma_me=1 trellis=1 8x8dct=1 cqm=0 deadzone=21,11 fast_pskip=1 chroma_qp_offset=-2 threads=12 lookahead_threads=2 sliced_threads=0 nr=0 decimate=1 interlaced=0 bluray_compat=0 constrained_intra=0 bframes=1 b_pyramid=0 b_adapt=1 b_bias=0 direct=1 weightb=1 open_gop=0 weightp=2 keyint=250 keyint_min=25 scenecut=40 intra_refresh=0 rc_lookahead=40 rc=abr mbtree=1 bitrate=750 ratetol=1.0 qcomp=0.60 qpmin=0 qpmax=69 qpstep=4 ip_ratio=1.40 aq=1:1.00 [libx264 @ 0x55ad1e705a40] using SAR=1/1 [libx264 @ 0x55ad1e705a40] using cpu capabilities: MMX2 SSE2Fast SSSE3 SSE4.2 AVX FMA3 BMI2 AVX2 [libx264 @ 0x55ad1e705a40] profile High, level 3.1 [libx264 @ 0x55ad1e705a40] 264 - core 155 r2917 0a84d98 - H.264/MPEG-4 AVC codec - Copyleft 2003-2018 - http://www.videolan.org/x264.html - options: cabac=1 ref=3 deblock=1:0:0 analyse=0x3:0x113 me=hex subme=7 psy=1 psy_rd=1.00:0.00 mixed_ref=1 me_range=16 chroma_me=1 trellis=1 8x8dct=1 cqm=0 deadzone=21,11 fast_pskip=1 chroma_qp_offset=-2 threads=12 lookahead_threads=2 sliced_threads=0 nr=0 decimate=1 interlaced=0 bluray_compat=0 constrained_intra=0 bframes=1 b_pyramid=0 b_adapt=1 b_bias=0 direct=1 weightb=1 open_gop=0 weightp=2 keyint=250 keyint_min=25 scenecut=40 intra_refresh=0 rc_lookahead=40 rc=abr mbtree=1 bitrate=2048 ratetol=1.0 qcomp=0.60 qpmin=0 qpmax=69 qpstep=4 ip_ratio=1.40 aq=1:1.00 [libx264 @ 0x55ad1e683240] using SAR=1/1 [libx264 @ 0x55ad1e683240] using cpu capabilities: MMX2 SSE2Fast SSSE3 SSE4.2 AVX FMA3 BMI2 AVX2 [libx264 @ 0x55ad1e683240] profile High, level 4.0 [libx264 @ 0x55ad1e683240] 264 - core 155 r2917 0a84d98 - H.264/MPEG-4 AVC codec - Copyleft 2003-2018 - http://www.videolan.org/x264.html - options: cabac=1 ref=3 deblock=1:0:0 analyse=0x3:0x113 me=hex subme=7 psy=1 psy_rd=1.00:0.00 mixed_ref=1 me_range=16 chroma_me=1 trellis=1 8x8dct=1 cqm=0 deadzone=21,11 fast_pskip=1 chroma_qp_offset=-2 threads=12 lookahead_threads=2 sliced_threads=0 nr=0 decimate=1 interlaced=0 bluray_compat=0 constrained_intra=0 bframes=1 b_pyramid=0 b_adapt=1 b_bias=0 direct=1 weightb=1 open_gop=0 weightp=2 keyint=250 keyint_min=25 scenecut=40 intra_refresh=0 rc_lookahead=40 rc=abr mbtree=1 bitrate=4096 ratetol=1.0 qcomp=0.60 qpmin=0 qpmax=69 qpstep=4 ip_ratio=1.40 aq=1:1.00 [libx264 @ 0x55ad1e679780] using SAR=1/1 [libx264 @ 0x55ad1e679780] using cpu capabilities: MMX2 SSE2Fast SSSE3 SSE4.2 AVX FMA3 BMI2 AVX2 [libx264 @ 0x55ad1e679780] profile High, level 5.0 [libx264 @ 0x55ad1e679780] 264 - core 155 r2917 0a84d98 - H.264/MPEG-4 AVC codec - Copyleft 2003-2018 - http://www.videolan.org/x264.html - options: cabac=1 ref=3 deblock=1:0:0 analyse=0x3:0x113 me=hex subme=7 psy=1 psy_rd=1.00:0.00 mixed_ref=1 me_range=16 chroma_me=1 trellis=1 8x8dct=1 cqm=0 deadzone=21,11 fast_pskip=1 chroma_qp_offset=-2 threads=12 lookahead_threads=2 sliced_threads=0 nr=0 decimate=1 interlaced=0 bluray_compat=0 constrained_intra=0 bframes=1 b_pyramid=0 b_adapt=1 b_bias=0 direct=1 weightb=1 open_gop=0 weightp=2 keyint=250 keyint_min=25 scenecut=40 intra_refresh=0 rc_lookahead=40 rc=abr mbtree=1 bitrate=6144 ratetol=1.0 qcomp=0.60 qpmin=0 qpmax=69 qpstep=4 ip_ratio=1.40 aq=1:1.00 [libx264 @ 0x55ad1e67d4c0] using SAR=1/1 [libx264 @ 0x55ad1e67d4c0] using cpu capabilities: MMX2 SSE2Fast SSSE3 SSE4.2 AVX FMA3 BMI2 AVX2 [libx264 @ 0x55ad1e67d4c0] profile High, level 5.1 [libx264 @ 0x55ad1e67d4c0] 264 - core 155 r2917 0a84d98 - H.264/MPEG-4 AVC codec - Copyleft 2003-2018 - http://www.videolan.org/x264.html - options: cabac=1 ref=3 deblock=1:0:0 analyse=0x3:0x113 me=hex subme=7 psy=1 psy_rd=1.00:0.00 mixed_ref=1 me_range=16 chroma_me=1 trellis=1 8x8dct=1 cqm=0 deadzone=21,11 fast_pskip=1 chroma_qp_offset=-2 threads=12 lookahead_threads=2 sliced_threads=0 nr=0 decimate=1 interlaced=0 bluray_compat=0 constrained_intra=0 bframes=1 b_pyramid=0 b_adapt=1 b_bias=0 direct=1 weightb=1 open_gop=0 weightp=2 keyint=250 keyint_min=25 scenecut=40 intra_refresh=0 rc_lookahead=40 rc=abr mbtree=1 bitrate=17408 ratetol=1.0 qcomp=0.60 qpmin=0 qpmax=69 qpstep=4 ip_ratio=1.40 aq=1:1.00 frame=    7 fps=0.0 q=0.0 q=0.0 q=0.0 q=0.0 q=0.0 q=0.0 q=0.0 q=0.0 size=N/A time=-577014:32:22.77 bitrate=N/A speed=N/A      [] []
